<svg width="420" height="280" viewBox="0 0 420 280" fill="none" xmlns="http://www.w3.org/2000/svg">
  <rect width="420" height="280" rx="28" fill="white" fill-opacity="0.14"/>
  <rect x="32" y="38" width="160" height="82" rx="18" fill="white"/>
  <rect x="55" y="62" width="74" height="10" rx="5" fill="#BFDBFE"/>
  <rect x="55" y="84" width="102" height="10" rx="5" fill="#D1FAE5"/>
  <rect x="228" y="38" width="160" height="204" rx="18" fill="white"/>
  <rect x="251" y="63" width="116" height="12" rx="6" fill="#E5E7EB"/>
  <rect x="251" y="91" width="68" height="68" rx="16" fill="#F59E0B" fill-opacity="0.2"/>
  <path d="M275 127L294 108L309 123L333 99" stroke="#F59E0B" stroke-width="8" stroke-linecap="round" stroke-linejoin="round"/>
  <rect x="251" y="177" width="116" height="10" rx="5" fill="#D1FAE5"/>
  <rect x="251" y="198" width="92" height="10" rx="5" fill="#BFDBFE"/>
  <rect x="32" y="140" width="160" height="102" rx="18" fill="white"/>
  <path d="M60 209C87 158.333 114 158.333 141 209C168 188.333 195 188.333 222 209" stroke="#0EA5A3" stroke-width="12" stroke-linecap="round"/>
  <circle cx="110" cy="176" r="16" fill="#0F766E" fill-opacity="0.16"/>
  <circle cx="145" cy="165" r="10" fill="#F59E0B" fill-opacity="0.26"/>
</svg>
